<?xml version="1.0" encoding="UTF-8"?>
<svg width="24px" height="25px" viewBox="0 0 24 25" version="1.1" xmlns="http://www.w3.org/2000/svg" xmlns:xlink="http://www.w3.org/1999/xlink">
    <title>433294DF-179A-417B-A400-E62A52391A81</title>
    <g id="Desktop" stroke="none" stroke-width="1" fill="none" fill-rule="evenodd">
        <g id="D-03-SC-VideoPlayer" transform="translate(-38.000000, -594.000000)" fill="#FFFFFF" fill-rule="nonzero">
            <g id="Templates/Revise/VideoView/Desktop" transform="translate(0.000000, 64.000000)">
                <g id="VideoPlayer" transform="translate(18.000000, 72.000000)">
                    <g id="Interface" transform="translate(0.000000, 28.000000)">
                        <g id="Components/Players/Video/Elements/Interface/Elements/Enter-Full-Screen" transform="translate(20.000000, 430.000000)">
                            <g id="Elements/Graphics/Style3/Photos/Black">
                                <g>
                                    <g id="Group">
                                        <path d="M11.9275444,16.816214 C11.9275444,17.0601447 11.7866033,17.2817512 11.5660387,17.3851873 C11.4807597,17.42552 11.3893786,17.4450166 11.2985929,17.4450166 C11.1548241,17.4450166 11.0123947,17.3956054 10.8973499,17.3002059 L7.45969721,14.4516185 L5.62880261,14.4516185 C5.28158451,14.4519162 5,14.1701828 5,13.8229647 L5,11.3177258 C5,10.9703589 5.28158451,10.6887744 5.62880261,10.6887744 L7.45984604,10.6887744 L10.8974987,7.84018697 C11.085321,7.68451182 11.3457717,7.65132294 11.5661875,7.75550326 C11.7866033,7.85893943 11.9276932,8.08069467 11.9276932,8.3244766 L11.9275444,16.816214 L11.9275444,16.816214 Z M14.3440812,15.8336448 C14.3287518,15.8346866 14.3140177,15.8352819 14.2988372,15.8352819 C14.132744,15.8352819 13.9726039,15.7696483 13.8542849,15.6511804 L13.7701965,15.5667944 C13.5496319,15.3466762 13.5237356,14.9979698 13.7094742,14.7476394 C14.1803693,14.1127348 14.4289137,13.3601065 14.4289137,12.5705685 C14.4289137,11.7213501 14.1467339,10.9248172 13.6127354,10.266993 C13.4094349,10.0169602 13.4281874,9.6538174 13.6560446,9.426109 L13.7399842,9.34202061 C13.8655959,9.21640892 14.0339215,9.14794757 14.2160882,9.15881208 C14.3934924,9.16774183 14.5591391,9.25123491 14.6716538,9.38875292 C15.4123759,10.2951217 15.8036474,11.3955634 15.8036474,12.5707174 C15.8036474,13.665206 15.4576199,14.7070091 14.8027722,15.5830167 C14.6933829,15.729018 14.5260991,15.8206967 14.3440812,15.8336448 Z M16.9438265,17.7769053 C16.8301211,17.9112979 16.6656651,17.9919632 16.4896003,17.9994047 C16.4809682,17.9997023 16.4721873,18 16.4632576,18 C16.2967179,18 16.1368755,17.9342176 16.0185565,17.8158985 L15.9359564,17.7332984 C15.7051226,17.5026134 15.6894955,17.1336663 15.8993444,16.8839312 C16.9134654,15.6778208 17.4721695,14.1460725 17.4721695,12.5705685 C17.4721695,10.9318122 16.8740257,9.35422459 15.788318,8.12846878 C15.5681999,7.87962666 15.579362,7.50294041 15.8136189,7.26779056 L15.8960702,7.18519045 C16.0184076,7.06225768 16.177357,6.99454048 16.3596726,7.00034481 C16.5327607,7.00525617 16.6964727,7.08175429 16.8115175,7.21123553 C18.1238918,8.68881004 18.8467544,10.5923332 18.8467544,12.5705685 C18.847052,14.4739429 18.1712194,16.3229946 16.9438265,17.7769053 Z" id="volume-icon"></path>
                                    </g>
                                </g>
                            </g>
                        </g>
                    </g>
                </g>
            </g>
        </g>
    </g>
</svg>