<?xml version="1.0" encoding="UTF-8"?>
<svg width="24px" height="24px" viewBox="0 0 24 24" version="1.1" xmlns="http://www.w3.org/2000/svg" xmlns:xlink="http://www.w3.org/1999/xlink">
    <title>Volume/Mute</title>
    <g id="Symbols" stroke="none" stroke-width="1" fill="none" fill-rule="evenodd">
        <g id="Compounds/Players/Video/Elements/Interface/Elements/Volume/Mute" fill="#FFFFFF" fill-rule="nonzero">
            <g id="Group">
                <path d="M16.3142135,12 L17.9348351,10.3793784 C18.0217216,10.2924919 18.0217216,10.1520513 17.9348351,10.0651649 C17.8479487,9.97827838 17.7075081,9.97827838 17.6206216,10.0651649 L16,11.6857865 L14.3793784,10.0651649 C14.2924919,9.97827838 14.1520513,9.97827838 14.0651649,10.0651649 C13.9782784,10.1520513 13.9782784,10.2924919 14.0651649,10.3793784 L15.6857865,12 L14.0651649,13.6206216 C13.9782784,13.7075081 13.9782784,13.8479487 14.0651649,13.9348351 C14.108497,13.9781673 14.1653843,13.9999444 14.2222716,13.9999444 C14.2791589,13.9999444 14.3360462,13.9781673 14.3793784,13.9348351 L16,12.3142135 L17.6206216,13.9348351 C17.6639538,13.9781673 17.7208411,13.9999444 17.7777284,13.9999444 C17.8346157,13.9999444 17.891503,13.9781673 17.9348351,13.9348351 C18.0217216,13.8479487 18.0217216,13.7075081 17.9348351,13.6206216 L16.3142135,12 Z M11.9275444,16.1208058 C11.9275444,16.3647366 11.7866033,16.586343 11.5660387,16.6897791 C11.4807597,16.7301118 11.3893786,16.7496084 11.2985929,16.7496084 C11.1548241,16.7496084 11.0123947,16.7001972 10.8973499,16.6047978 L7.45969721,13.7562103 L5.62880261,13.7562103 C5.28158451,13.756508 5,13.4747746 5,13.1275565 L5,10.6223177 C5,10.2749507 5.28158451,9.99336622 5.62880261,9.99336622 L7.45984604,9.99336622 L10.8974987,7.14477878 C11.085321,6.98910363 11.3457717,6.95591476 11.5661875,7.06009507 C11.7866033,7.16353124 11.9276932,7.38528648 11.9276932,7.62906841 L11.9275444,16.1208058 L11.9275444,16.1208058 Z" id="volume-icon"></path>
            </g>
        </g>
    </g>
</svg>