<?xml version="1.0" encoding="UTF-8"?>
<svg width="24px" height="24px" viewBox="0 0 24 24" version="1.1" xmlns="http://www.w3.org/2000/svg" xmlns:xlink="http://www.w3.org/1999/xlink">
    <title>41C2474E-25FF-4C78-ADF3-7D01ECD44EAA</title>
    <defs>
        <rect id="path-1" x="0" y="0" width="1280" height="768"></rect>
        <rect id="path-3" x="0" y="0" width="1280" height="768"></rect>
        <filter x="-1.0%" y="-1.4%" width="102.0%" height="103.4%" filterUnits="objectBoundingBox" id="filter-4">
            <feOffset dx="0" dy="2" in="SourceAlpha" result="shadowOffsetOuter1"></feOffset>
            <feGaussianBlur stdDeviation="4" in="shadowOffsetOuter1" result="shadowBlurOuter1"></feGaussianBlur>
            <feComposite in="shadowBlurOuter1" in2="SourceAlpha" operator="out" result="shadowBlurOuter1"></feComposite>
            <feColorMatrix values="0 0 0 0 0   0 0 0 0 0   0 0 0 0 0  0 0 0 0.2 0" type="matrix" in="shadowBlurOuter1"></feColorMatrix>
        </filter>
        <path d="M0,0 L1122,0 L1122,570 C1122,586.568542 1108.56854,600 1092,600 L30,600 C13.4314575,600 2.02906125e-15,586.568542 0,570 L0,0 L0,0 Z" id="path-5"></path>
        <filter x="-1.2%" y="-1.8%" width="102.3%" height="104.3%" filterUnits="objectBoundingBox" id="filter-6">
            <feOffset dx="0" dy="2" in="SourceAlpha" result="shadowOffsetOuter1"></feOffset>
            <feGaussianBlur stdDeviation="4" in="shadowOffsetOuter1" result="shadowBlurOuter1"></feGaussianBlur>
            <feComposite in="shadowBlurOuter1" in2="SourceAlpha" operator="out" result="shadowBlurOuter1"></feComposite>
            <feColorMatrix values="0 0 0 0 0   0 0 0 0 0   0 0 0 0 0  0 0 0 0.2 0" type="matrix" in="shadowBlurOuter1"></feColorMatrix>
        </filter>
    </defs>
    <g id="Desktop" stroke="none" stroke-width="1" fill="none" fill-rule="evenodd">
        <g id="D-02-ST-Opening-Page" transform="translate(-628.000000, -576.000000)">
            <g id="Templates/OpeningPage">
                <mask id="mask-2" fill="white">
                    <use xlink:href="#path-1"></use>
                </mask>
                <use id="Mask" fill-opacity="0" fill="#000000" xlink:href="#path-1"></use>
                <g id="Background" mask="url(#mask-2)">
                    <g transform="translate(-20.000000, 0.000000)">
                        <g id="Base" transform="translate(20.000000, 0.000000)">
                            <rect id="SubjectColour---Base" fill="#D03B63" x="0" y="0" width="1280" height="768"></rect>
                            <g id="40%-Black-Overlay---Base">
                                <use fill="black" fill-opacity="1" filter="url(#filter-4)" xlink:href="#path-3"></use>
                                <use fill-opacity="0.4" fill="#000000" fill-rule="evenodd" xlink:href="#path-3"></use>
                            </g>
                        </g>
                        <g id="BottomLayer" transform="translate(99.000000, 0.000000)">
                            <path d="M0,0 L1122,0 L1122,570 C1122,586.568542 1108.56854,600 1092,600 L30,600 C13.4314575,600 2.02906125e-15,586.568542 0,570 L0,0 L0,0 Z" id="SubjectColour---Bottom-Layer" fill="#D03B63"></path>
                            <g id="30%-Black-Overlay---Bottom-Layer">
                                <use fill="black" fill-opacity="1" filter="url(#filter-6)" xlink:href="#path-5"></use>
                                <use fill-opacity="0.3" fill="#000000" fill-rule="evenodd" xlink:href="#path-5"></use>
                            </g>
                        </g>
                        <g id="MiddleLayer" transform="translate(20.000000, 0.000000)">
                            <path d="M0,0 L1280,0 L1280,578 C1280,594.568542 1266.56854,608 1250,608 L30,608 C13.4314575,608 2.02906125e-15,594.568542 0,578 L0,0 L0,0 Z" id="SubjectColour---Middle-Layer" fill="#D03B63"></path>
                            <path d="M0,0 L1280,0 L1280,578 C1280,594.568542 1266.56854,608 1250,608 L30,608 C13.4314575,608 2.02906125e-15,594.568542 0,578 L0,0 L0,0 Z" id="20%-Black-Overlay---Middle-Layer" fill-opacity="0.2" fill="#000000"></path>
                        </g>
                    </g>
                </g>
            </g>
            <g id="Elements/CTAs/IconBased/CC" transform="translate(628.000000, 576.000000)">
                <g id="Elements/Graphics/Style3/Photos/Black">
                    <g id="Group">
                        <circle id="Oval" fill-opacity="0.3" fill="#FFFFFF" cx="12" cy="12" r="12"></circle>
                        <polygon id="Rectangle" fill="#FFFCFC" transform="translate(12.500000, 14.500000) scale(1, -1) rotate(45.000000) translate(-12.500000, -14.500000) " points="17 10 17 19 8 19"></polygon>
                    </g>
                </g>
            </g>
        </g>
    </g>
</svg>