<?xml version="1.0" encoding="UTF-8"?>
<svg width="24px" height="24px" viewBox="0 0 24 24" version="1.1" xmlns="http://www.w3.org/2000/svg" xmlns:xlink="http://www.w3.org/1999/xlink">
    <title>FileFormats/Audio/Black</title>
    <g id="Symbols" stroke="none" stroke-width="1" fill="none" fill-rule="evenodd">
        <g id="Elements/Graphics/Style3/Audio/Black" fill="#000000" fill-rule="nonzero">
            <g id="microphone" transform="translate(5.000000, 0.000000)">
                <path d="M12.8275862,11.5862069 C12.5991724,11.5862069 12.4137931,11.7711724 12.4137931,12 L12.4137931,14.4827586 C12.4137931,17.6772414 9.81517241,20.2758621 6.62068966,20.2758621 C3.4262069,20.2758621 0.827586207,17.6772414 0.827586207,14.4827586 L0.827586207,12 C0.827586207,11.7711724 0.642206897,11.5862069 0.413793103,11.5862069 C0.18537931,11.5862069 0,11.7711724 0,12 L0,14.4827586 C0,17.9937931 2.74924138,20.8671724 6.20689655,21.0823448 L6.20689655,23.1724138 L4.13793103,23.1724138 C3.90951724,23.1724138 3.72413793,23.3573793 3.72413793,23.5862069 C3.72413793,23.8150345 3.90951724,24 4.13793103,24 L9.10344828,24 C9.33186207,24 9.51724138,23.8150345 9.51724138,23.5862069 C9.51724138,23.3573793 9.33186207,23.1724138 9.10344828,23.1724138 L7.03448276,23.1724138 L7.03448276,21.0823448 C10.4921379,20.8671724 13.2413793,17.9933793 13.2413793,14.4827586 L13.2413793,12 C13.2413793,11.7711724 13.056,11.5862069 12.8275862,11.5862069 Z" id="Path"></path>
                <path d="M6.62068966,19.0344828 C9.13034483,19.0344828 11.1724138,16.9924138 11.1724138,14.4827586 L11.1724138,4.55172414 C11.1724138,2.04206897 9.13034483,0 6.62068966,0 C4.11103448,0 2.06896552,2.04206897 2.06896552,4.55172414 L2.06896552,14.4827586 C2.06896552,16.9924138 4.11103448,19.0344828 6.62068966,19.0344828 Z M2.89655172,4.55172414 C2.89655172,2.49806897 4.56744828,0.827586207 6.62068966,0.827586207 C8.67393103,0.827586207 10.3448276,2.49806897 10.3448276,4.55172414 L10.3448276,14.4827586 C10.3448276,16.5364138 8.67393103,18.2068966 6.62068966,18.2068966 C4.56744828,18.2068966 2.89655172,16.5364138 2.89655172,14.4827586 L2.89655172,4.55172414 Z" id="Shape"></path>
            </g>
        </g>
    </g>
</svg>