<?xml version="1.0" encoding="UTF-8"?>
<svg width="24px" height="24px" viewBox="0 0 24 24" version="1.1" xmlns="http://www.w3.org/2000/svg" xmlns:xlink="http://www.w3.org/1999/xlink">
    <title>D6C8C39E-0AE9-4669-8E1D-B58273A07315</title>
    <defs>
        <rect id="path-1" x="0" y="0" width="1280" height="768"></rect>
        <rect id="path-3" x="0" y="0" width="1280" height="768"></rect>
        <filter x="-1.0%" y="-1.4%" width="102.0%" height="103.4%" filterUnits="objectBoundingBox" id="filter-4">
            <feOffset dx="0" dy="2" in="SourceAlpha" result="shadowOffsetOuter1"></feOffset>
            <feGaussianBlur stdDeviation="4" in="shadowOffsetOuter1" result="shadowBlurOuter1"></feGaussianBlur>
            <feComposite in="shadowBlurOuter1" in2="SourceAlpha" operator="out" result="shadowBlurOuter1"></feComposite>
            <feColorMatrix values="0 0 0 0 0   0 0 0 0 0   0 0 0 0 0  0 0 0 0.2 0" type="matrix" in="shadowBlurOuter1"></feColorMatrix>
        </filter>
    </defs>
    <g id="Desktop" stroke="none" stroke-width="1" fill="none" fill-rule="evenodd">
        <g id="D-01-SC-Opening-Page" transform="translate(-18.000000, -20.000000)">
            <g id="Templates/OpeningPage">
                <mask id="mask-2" fill="white">
                    <use xlink:href="#path-1"></use>
                </mask>
                <use id="Mask" fill-opacity="0" fill="#000000" xlink:href="#path-1"></use>
                <g id="Background" mask="url(#mask-2)">
                    <g id="Base">
                        <rect id="SubjectColour---Base" fill="#D03B63" x="0" y="0" width="1280" height="768"></rect>
                        <g id="40%-Black-Overlay---Base">
                            <use fill="black" fill-opacity="1" filter="url(#filter-4)" xlink:href="#path-3"></use>
                            <use fill-opacity="0.4" fill="#000000" fill-rule="evenodd" xlink:href="#path-3"></use>
                        </g>
                    </g>
                    <g id="Templates/Global/Orientation/Elements/MiddleLayer" transform="translate(10.000000, 0.000000)">
                        <path d="M0,0 L1260,0 L1260,578 C1260,594.568542 1246.56854,608 1230,608 L30,608 C13.4314575,608 2.02906125e-15,594.568542 0,578 L0,0 L0,0 Z" id="SubjectColour---Middle-Layer" fill="#D03B63"></path>
                        <path d="M0,0 L1260,0 L1260,578 C1260,594.568542 1246.56854,608 1230,608 L30,608 C13.4314575,608 2.02906125e-15,594.568542 0,578 L0,0 L0,0 Z" id="20%-Black-Overlay---Middle-Layer" fill-opacity="0.2" fill="#000000"></path>
                    </g>
                    <g id="TopLayer" fill="#D03B63">
                        <path d="M0,0 L1280,0 L1280,558 C1280,574.568542 1266.56854,588 1250,588 L30,588 C13.4314575,588 2.02906125e-15,574.568542 0,558 L0,0 L0,0 Z" id="SubjectColour---Top-Layer"></path>
                    </g>
                </g>
            </g>
            <g id="Templates/Global/Generic/Components/Header/SubjectGeneric/Desktop">
                <rect id="Rectangle" fill="#D03B63" x="0" y="0" width="1280" height="64"></rect>
                <g id="Elements/CTAs/IconBased" transform="translate(18.000000, 20.000000)" fill="#FFFFFF">
                    <g id="Elements/Graphics/Style3/Photos/Black">
                        <g id="Group">
                            <circle id="Oval" fill-opacity="0.3" cx="12" cy="12" r="12"></circle>
                            <polygon id="Rectangle" transform="translate(13.500000, 12.500000) scale(-1, 1) rotate(-45.000000) translate(-13.500000, -12.500000) " points="18 8 18 17 9 17"></polygon>
                        </g>
                    </g>
                </g>
            </g>
        </g>
    </g>
</svg>