<?xml version="1.0" encoding="UTF-8"?>
<svg width="24px" height="24px" viewBox="0 0 24 24" version="1.1" xmlns="http://www.w3.org/2000/svg" xmlns:xlink="http://www.w3.org/1999/xlink">
    <title>Functional/FilesTypes/Image/Black</title>
    <g id="Symbols" stroke="none" stroke-width="1" fill="none" fill-rule="evenodd">
        <g id="Elements/Graphics/Style3/Camera/Black" fill="#000000" fill-rule="nonzero">
            <g id="photo-camera" transform="translate(0.000000, 2.000000)">
                <path d="M22.0804,4.2 L18.6708,4.2 L17.0708,0.2 L6.9292,0.2 L5.3292,4.2 L4.8,4.2 L4.8,2.2 L2.4,2.2 L2.4,4.2 L1.9196,4.2 C0.8608,4.2 0,5.0608 0,6.1196 L0,17.8668 C0,18.9328 0.8672,19.8 1.9332,19.8 L22.0668,19.8 C23.1328,19.8 24,18.9328 24,17.8668 L24,6.1196 C24,5.0608 23.1392,4.2 22.0804,4.2 Z M3.2,3 L4,3 L4,4.2 L3.2,4.2 L3.2,3 Z M23.2,17.8668 C23.2,18.492 22.6916,19 22.0668,19 L1.9332,19 C1.3084,19 0.8,18.4916 0.8,17.8668 L0.8,6.1196 C0.8,5.5024 1.3024,5 1.9196,5 L2.4,5 L4.8,5 L5.8708,5 L7.4708,1 L16.5292,1 L18.1292,5 L22.0804,5 C22.6976,5 23.2,5.5024 23.2,6.1196 L23.2,17.8668 Z" id="Shape"></path>
                <path d="M12,3.8 C8.03,3.8 4.8,7.03 4.8,11 C4.8,14.97 8.03,18.2 12,18.2 C15.97,18.2 19.2,14.97 19.2,11 C19.2,7.03 15.97,3.8 12,3.8 Z M12,17.4 C8.4712,17.4 5.6,14.5288 5.6,11 C5.6,7.4712 8.4712,4.6 12,4.6 C15.5288,4.6 18.4,7.4712 18.4,11 C18.4,14.5288 15.5288,17.4 12,17.4 Z" id="Shape"></path>
                <path d="M12,6.2 C9.3532,6.2 7.2,8.3532 7.2,11 C7.2,13.6468 9.3532,15.8 12,15.8 C14.6468,15.8 16.8,13.6468 16.8,11 C16.8,8.3532 14.6468,6.2 12,6.2 Z M12,15 C9.7944,15 8,13.2056 8,11 C8,8.7944 9.7944,7 12,7 C14.2056,7 16,8.7944 16,11 C16,13.2056 14.2056,15 12,15 Z" id="Shape"></path>
                <path d="M20.8,5.8 C19.9176,5.8 19.2,6.5176 19.2,7.4 C19.2,8.2824 19.9176,9 20.8,9 C21.6824,9 22.4,8.2824 22.4,7.4 C22.4,6.5176 21.6824,5.8 20.8,5.8 Z M20.8,8.2 C20.3588,8.2 20,7.8412 20,7.4 C20,6.9588 20.3588,6.6 20.8,6.6 C21.2412,6.6 21.6,6.9588 21.6,7.4 C21.6,7.8412 21.2412,8.2 20.8,8.2 Z" id="Shape"></path>
            </g>
        </g>
    </g>
</svg>