<?xml version="1.0" encoding="UTF-8"?>
<svg width="24px" height="24px" viewBox="0 0 24 24" version="1.1" xmlns="http://www.w3.org/2000/svg" xmlns:xlink="http://www.w3.org/1999/xlink">
    <title>Document/Black</title>
    <g id="Symbols" stroke="none" stroke-width="1" fill="none" fill-rule="evenodd">
        <g id="Elements/Graphics/Style3/Document/Black" fill="#000000" fill-rule="nonzero">
            <g id="document" transform="translate(2.000000, 0.000000)">
                <path d="M13.7141667,0 L0.208333333,0 L0.208333333,24 L19.7916667,24 L19.7916667,5.8344 L13.7141667,0 Z M13.9583333,1.3656 L18.3691667,5.6 L13.9583333,5.6 L13.9583333,1.3656 Z M1.04166667,23.2 L1.04166667,0.8 L13.125,0.8 L13.125,6.4 L18.9583333,6.4 L18.9583333,23.2 L1.04166667,23.2 Z" id="Shape"></path>
                <path d="M4.375,6.8 L8.125,6.8 C8.355,6.8 8.54166667,6.6212 8.54166667,6.4 C8.54166667,6.1788 8.355,6 8.125,6 L4.375,6 C4.145,6 3.95833333,6.1788 3.95833333,6.4 C3.95833333,6.6212 4.145,6.8 4.375,6.8 Z" id="Path"></path>
                <path d="M11.4583333,14.8 L4.375,14.8 C4.145,14.8 3.95833333,14.9788 3.95833333,15.2 C3.95833333,15.4212 4.145,15.6 4.375,15.6 L11.4583333,15.6 C11.6883333,15.6 11.875,15.4212 11.875,15.2 C11.875,14.9788 11.6883333,14.8 11.4583333,14.8 Z" id="Path"></path>
                <path d="M15.625,12 L12.7083333,12 C12.4783333,12 12.2916667,12.1788 12.2916667,12.4 C12.2916667,12.6212 12.4783333,12.8 12.7083333,12.8 L15.625,12.8 C15.855,12.8 16.0416667,12.6212 16.0416667,12.4 C16.0416667,12.1788 15.855,12 15.625,12 Z" id="Path"></path>
                <path d="M4.375,10 L6.45833333,10 C6.68833333,10 6.875,9.8212 6.875,9.6 C6.875,9.3788 6.68833333,9.2 6.45833333,9.2 L4.375,9.2 C4.145,9.2 3.95833333,9.3788 3.95833333,9.6 C3.95833333,9.8212 4.145,10 4.375,10 Z" id="Path"></path>
                <path d="M10.625,10 L13.5416667,10 C13.7716667,10 13.9583333,9.8212 13.9583333,9.6 C13.9583333,9.3788 13.7716667,9.2 13.5416667,9.2 L10.625,9.2 C10.395,9.2 10.2083333,9.3788 10.2083333,9.6 C10.2083333,9.8212 10.395,10 10.625,10 Z" id="Path"></path>
                <path d="M8.125,9.6 C8.125,9.704 8.17083333,9.808 8.24583333,9.884 C8.325,9.956 8.43333333,10 8.54166667,10 C8.65,10 8.75833333,9.956 8.8375,9.884 C8.9125,9.808 8.95833333,9.704 8.95833333,9.6 C8.95833333,9.4956 8.9125,9.3916 8.8375,9.316 C8.68333333,9.168 8.40416667,9.168 8.24583333,9.316 C8.17083333,9.3916 8.125,9.4956 8.125,9.6 Z" id="Path"></path>
                <path d="M6.45833333,12 C6.22833333,12 6.04166667,12.1788 6.04166667,12.4 C6.04166667,12.6212 6.22833333,12.8 6.45833333,12.8 L10.625,12.8 C10.855,12.8 11.0416667,12.6212 11.0416667,12.4 C11.0416667,12.1788 10.855,12 10.625,12 L6.45833333,12 Z" id="Path"></path>
                <path d="M4.375,12.8 C4.48333333,12.8 4.59166667,12.756 4.67083333,12.684 C4.74583333,12.608 4.79166667,12.504 4.79166667,12.4 C4.79166667,12.2956 4.74583333,12.1916 4.67083333,12.116 C4.51666667,11.968 4.23333333,11.968 4.07916667,12.116 C4.00416667,12.1916 3.95833333,12.2916 3.95833333,12.4 C3.95833333,12.504 4.00416667,12.608 4.07916667,12.684 C4.15833333,12.756 4.26666667,12.8 4.375,12.8 Z" id="Path"></path>
                <path d="M15.625,17.6 L12.7083333,17.6 C12.4783333,17.6 12.2916667,17.7788 12.2916667,18 C12.2916667,18.2212 12.4783333,18.4 12.7083333,18.4 L15.625,18.4 C15.855,18.4 16.0416667,18.2212 16.0416667,18 C16.0416667,17.7788 15.855,17.6 15.625,17.6 Z" id="Path"></path>
                <path d="M10.625,17.6 L6.45833333,17.6 C6.22833333,17.6 6.04166667,17.7788 6.04166667,18 C6.04166667,18.2212 6.22833333,18.4 6.45833333,18.4 L10.625,18.4 C10.855,18.4 11.0416667,18.2212 11.0416667,18 C11.0416667,17.7788 10.855,17.6 10.625,17.6 Z" id="Path"></path>
                <path d="M4.07916667,17.716 C4.00416667,17.788 3.95833333,17.8916 3.95833333,18 C3.95833333,18.108 4,18.208 4.07916667,18.284 C4.15833333,18.356 4.26666667,18.4 4.375,18.4 C4.4875,18.4 4.59166667,18.356 4.67083333,18.284 C4.74583333,18.208 4.79166667,18.104 4.79166667,18 C4.79166667,17.8916 4.74583333,17.7916 4.67083333,17.72 C4.51666667,17.568 4.2375,17.568 4.07916667,17.716 Z" id="Path"></path>
                <path d="M15.3291667,9.316 C15.2541667,9.3916 15.2083333,9.4956 15.2083333,9.6 C15.2083333,9.704 15.2541667,9.808 15.3291667,9.884 C15.4083333,9.956 15.5166667,10 15.625,10 C15.7333333,10 15.8416667,9.956 15.9208333,9.884 C16,9.808 16.0416667,9.704 16.0416667,9.6 C16.0416667,9.4956 16,9.3916 15.9208333,9.316 C15.7625,9.168 15.4875,9.168 15.3291667,9.316 Z" id="Path"></path>
                <path d="M13.8375,15.484 C13.9125,15.408 13.9583333,15.304 13.9583333,15.2 C13.9583333,15.0956 13.9125,14.9916 13.8375,14.916 C13.6791667,14.768 13.4,14.768 13.2458333,14.916 C13.1708333,14.9916 13.125,15.0956 13.125,15.2 C13.125,15.304 13.1708333,15.408 13.2458333,15.484 C13.325,15.5596 13.4291667,15.6 13.5416667,15.6 C13.6541667,15.6 13.7583333,15.556 13.8375,15.484 Z" id="Path"></path>
                <path d="M15.3291667,14.916 C15.2541667,14.9916 15.2083333,15.0956 15.2083333,15.2 C15.2083333,15.304 15.2541667,15.408 15.3291667,15.484 C15.4083333,15.556 15.5125,15.6 15.625,15.6 C15.7375,15.6 15.8416667,15.556 15.9208333,15.484 C15.9958333,15.408 16.0416667,15.304 16.0416667,15.2 C16.0416667,15.0956 15.9958333,14.9916 15.9208333,14.916 C15.7666667,14.768 15.4833333,14.768 15.3291667,14.916 Z" id="Path"></path>
            </g>
        </g>
    </g>
</svg>