<?xml version="1.0" encoding="UTF-8"?>
<svg width="24px" height="24px" viewBox="0 0 24 24" version="1.1" xmlns="http://www.w3.org/2000/svg" xmlns:xlink="http://www.w3.org/1999/xlink">
    <title>158DFF5D-B089-4554-8DDF-0DA1C1473412</title>
    <defs>
        <rect id="path-1" x="0" y="0" width="614" height="580" rx="25"></rect>
        <filter x="-2.3%" y="-1.7%" width="104.6%" height="104.8%" filterUnits="objectBoundingBox" id="filter-2">
            <feOffset dx="0" dy="4" in="SourceAlpha" result="shadowOffsetOuter1"></feOffset>
            <feGaussianBlur stdDeviation="4" in="shadowOffsetOuter1" result="shadowBlurOuter1"></feGaussianBlur>
            <feColorMatrix values="0 0 0 0 0   0 0 0 0 0   0 0 0 0 0  0 0 0 0.8 0" type="matrix" in="shadowBlurOuter1"></feColorMatrix>
        </filter>
        <path d="M25,0 L589,0 C602.807119,-2.53632657e-15 614,11.1928813 614,25 L614,300 L614,300 L0,300 L0,25 C-1.69088438e-15,11.1928813 11.1928813,2.53632657e-15 25,0 Z" id="path-3"></path>
        <filter x="-8.1%" y="-15.3%" width="116.3%" height="133.3%" filterUnits="objectBoundingBox" id="filter-4">
            <feOffset dx="0" dy="4" in="SourceAlpha" result="shadowOffsetOuter1"></feOffset>
            <feGaussianBlur stdDeviation="16" in="shadowOffsetOuter1" result="shadowBlurOuter1"></feGaussianBlur>
            <feComposite in="shadowBlurOuter1" in2="SourceAlpha" operator="out" result="shadowBlurOuter1"></feComposite>
            <feColorMatrix values="0 0 0 0 0   0 0 0 0 0   0 0 0 0 0  0 0 0 0.1 0" type="matrix" in="shadowBlurOuter1"></feColorMatrix>
        </filter>
    </defs>
    <g id="Desktop" stroke="none" stroke-width="1" fill="none" fill-rule="evenodd">
        <g id="D-14-SC-ViewAllNotes" transform="translate(-907.000000, -334.000000)">
            <g id="Global/Generic" fill="#FFFFFF">
                <rect id="Rectangle" x="0" y="0" width="1280" height="768"></rect>
            </g>
            <g id="Revise/NonVideoView" transform="translate(0.000000, 64.000000)" fill="#FFFFFF">
                <rect id="Rectangle" x="0" y="0" width="1280" height="704"></rect>
            </g>
            <g id="Components/Players/Quiz" transform="translate(189.000000, 157.000000)" fill="#F2F6F9" stroke="#D6E5F1">
                <g id="Templates/Revise/VideoView/Elements/Notes">
                    <rect id="Rectangle" x="0.5" y="0.5" width="909" height="580"></rect>
                </g>
            </g>
            <g id="Modal-Window">
                <rect id="OverlayBase" fill-opacity="0.75" fill="#000000" x="0" y="0" width="1280" height="768"></rect>
                <g id="Group-2" transform="translate(333.000000, 94.000000)">
                    <g id="White">
                        <use fill="black" fill-opacity="1" filter="url(#filter-2)" xlink:href="#path-1"></use>
                        <use fill="#FFFFFF" fill-rule="evenodd" xlink:href="#path-1"></use>
                    </g>
                </g>
            </g>
            <g id="Note-1" transform="translate(333.000000, 216.000000)">
                <g id="Rectangle">
                    <use fill="black" fill-opacity="1" filter="url(#filter-4)" xlink:href="#path-3"></use>
                    <path stroke="#D6E5F1" stroke-width="1" d="M589,0.5 L25,0.5 C18.2345118,0.5 12.1095118,3.24225591 7.67588386,7.67588386 C3.24225591,12.1095118 0.5,18.2345118 0.5,25 L0.5,299.5 L613.5,299.5 L613.5,25 C613.5,18.2345118 610.757744,12.1095118 606.324116,7.67588386 C601.890488,3.24225591 595.765488,0.5 589,0.5 Z" stroke-linejoin="square" fill="#F2F6F9" fill-rule="evenodd"></path>
                </g>
                <g id="Group-2" transform="translate(0.000000, 18.000000)" fill="#000000" fill-rule="nonzero">
                    <g id="Group" transform="translate(16.000000, 99.000000)">
                        <g id="EditButton" transform="translate(558.000000, 1.000000)">
                            <g id="Elements/Graphics/Style3/Photos/Black">
                                <g id="Group-2">
                                    <path d="M12.2790552,2.94342328e-12 C12.2790552,-1.02117606 13.1068819,-1.84900281 14.128058,-1.84900281 C15.149234,-1.84900281 15.9770608,-1.02117606 15.9770608,2.94342328e-12 L15.9770608,16.6410253 L14.128058,21.3387497 L12.2790552,16.6410253 L12.2790552,2.94342328e-12 Z M15.0520552,3.91699719 L13.2030552,3.91699719 L13.2035566,15.7165239 L15.0525594,15.7165239 L15.0520552,3.91699719 Z M15.0520552,2.06799719 L13.2030552,2.06799719 L13.2030552,2.91699719 L15.0520552,2.91699719 L15.0520552,2.06799719 Z M14.128058,-0.924501407 C13.6539405,-0.924501407 13.2631803,-0.567606708 13.2097764,-0.107816395 L13.2035566,2.94475555e-12 L13.2030552,1.06799719 L15.0520552,1.06799719 L15.0525594,2.94475555e-12 C15.0525594,-0.474117455 14.6956647,-0.864877687 14.2358744,-0.91828161 L14.128058,-0.924501407 Z" id="Combined-Shape" transform="translate(14.128058, 9.744873) rotate(45.000000) translate(-14.128058, -9.744873) "></path>
                                    <path d="M13.914,5.54631741 L12.989,6.47131741 L0.924501407,6.47150985 L0.924501407,21.2635324 C0.924501407,22.2382913 1.67878157,23.0368787 2.63551097,23.1074636 L2.77350422,23.1125352 L17.5655267,23.1125352 L17.565,11.0473174 L18.49,10.1223174 L18.4900281,24.0370366 L2.77350422,24.0370366 C1.24174014,24.0370366 0,22.7952965 0,21.2635324 L0,5.54700844 L13.914,5.54631741 Z" id="Combined-Shape"></path>
                                </g>
                            </g>
                        </g>
                    </g>
                </g>
            </g>
        </g>
    </g>
</svg>