<?xml version="1.0" encoding="UTF-8"?>
<svg width="24px" height="24px" viewBox="0 0 24 24" version="1.1" xmlns="http://www.w3.org/2000/svg" xmlns:xlink="http://www.w3.org/1999/xlink">
    <title>Folder/Black</title>
    <g id="Symbols" stroke="none" stroke-width="1" fill="none" fill-rule="evenodd">
        <g id="Elements/Graphics/Style3/Folder/Black" fill="#000000" fill-rule="nonzero">
            <g id="folder-10" transform="translate(12.000000, 12.000000) rotate(90.000000) translate(-12.000000, -12.000000) translate(0.000000, 2.000000)">
                <path d="M22.996,6.6 L21.6,6.6 L21.6,4.0928 C21.6,3.49 21.1096,3 20.5072,3 L10.606,3 L8.606,0.2 L1.0928,0.2 C0.4904,0.2 0,0.6904 0,1.2928 L0,18.7676 L0.0024,18.7676 C0.0004,18.9928 0.0704,19.2132 0.2112,19.3976 C0.4072,19.6536 0.704,19.8 1.026,19.8 L18.9296,19.8 C19.392,19.8 19.7992,19.4884 19.9096,19.0748 L24,7.8596 L24,7.7888 C24,7.1 23.5776,6.6 22.996,6.6 Z M0.8,1.2928 C0.8,1.1312 0.9316,1 1.0928,1 L8.194,1 L10.194,3.8 L20.5068,3.8 C20.6684,3.8 20.7996,3.9312 20.7996,4.0928 L20.7996,6.6 L5.0924,6.6 C5.0348,6.6 4.9776,6.6048 4.922,6.6144 C4.5328,6.6796 4.2092,6.9636 4.1128,7.3248 L0.8,16.3596 L0.8,1.2928 Z M19.1476,18.8332 C19.1212,18.9312 19.0312,19 18.9296,19 L1.026,19 C0.9288,19 0.872,18.9444 0.8468,18.9112 C0.8216,18.8784 0.7828,18.8088 0.7976,18.748 L4.874,7.5668 C4.9004,7.4688 4.9904,7.4 5.092,7.4 L21.6,7.4 L22.996,7.4 C23.148,7.4 23.1868,7.6184 23.1968,7.7276 L19.1476,18.8332 Z" id="Shape"></path>
            </g>
        </g>
    </g>
</svg>