<?xml version="1.0" encoding="UTF-8"?>
<svg width="24px" height="24px" viewBox="0 0 24 24" version="1.1" xmlns="http://www.w3.org/2000/svg" xmlns:xlink="http://www.w3.org/1999/xlink">
    <title>FileFormats/Photo/Black</title>
    <g id="Symbols" stroke="none" stroke-width="1" fill="none" fill-rule="evenodd">
        <g id="Elements/Graphics/Style3/Photos/Black" fill="#000000" fill-rule="nonzero">
            <g id="picture" transform="translate(0.000000, 2.000000)">
                <path d="M23.5862069,0 L0.413793103,0 C0.18537931,0 0,0.184965517 0,0.413793103 L0,18.6206897 C0,18.8495172 0.18537931,19.0344828 0.413793103,19.0344828 L23.5862069,19.0344828 C23.8146207,19.0344828 24,18.8495172 24,18.6206897 L24,0.413793103 C24,0.184965517 23.8146207,0 23.5862069,0 Z M23.1724138,18.2068966 L0.827586207,18.2068966 L0.827586207,0.827586207 L23.1724138,0.827586207 L23.1724138,18.2068966 Z" id="Shape"></path>
                <path d="M6.62068966,9.16055172 C7.89144828,9.16055172 8.92510345,8.12689655 8.92510345,6.85655172 C8.92510345,5.58537931 7.89144828,4.55172414 6.62068966,4.55172414 C5.34993103,4.55172414 4.31627586,5.58537931 4.31627586,6.85613793 C4.31627586,8.12689655 5.34993103,9.16055172 6.62068966,9.16055172 Z M6.62068966,5.37931034 C7.43503448,5.37931034 8.09751724,6.0422069 8.09751724,6.85613793 C8.09751724,7.67006897 7.43503448,8.33296552 6.62068966,8.33296552 C5.80634483,8.33296552 5.14386207,7.67048276 5.14386207,6.85655172 C5.14386207,6.04262069 5.80634483,5.37931034 6.62068966,5.37931034 Z" id="Shape"></path>
                <path d="M2.89655172,16.5517241 C2.99337931,16.5517241 3.09103448,16.5177931 3.16965517,16.4486897 L9.91986207,10.5057931 L14.1827586,14.7682759 C14.3445517,14.930069 14.606069,14.930069 14.7678621,14.7682759 C14.9296552,14.6064828 14.9296552,14.3449655 14.7678621,14.1831724 L12.7787586,12.194069 L16.5777931,8.0337931 L21.2375172,12.3053793 C21.405931,12.4597241 21.6678621,12.4481379 21.8222069,12.2797241 C21.9765517,12.1113103 21.9653793,11.8493793 21.7965517,11.6950345 L16.8310345,7.14331034 C16.749931,7.06924138 16.641931,7.03241379 16.5331034,7.03489655 C16.4234483,7.03986207 16.32,7.08827586 16.245931,7.16937931 L12.1932414,11.6081379 L10.2306207,9.64551724 C10.0758621,9.49117241 9.82841379,9.48331034 9.66455172,9.62731034 L2.62303448,15.8271724 C2.45131034,15.9782069 2.43475862,16.2397241 2.5857931,16.4114483 C2.66772414,16.5045517 2.78193103,16.5517241 2.89655172,16.5517241 Z" id="Path"></path>
            </g>
        </g>
    </g>
</svg>