<?xml version="1.0" encoding="UTF-8"?>
<svg width="24px" height="24px" viewBox="0 0 24 24" version="1.1" xmlns="http://www.w3.org/2000/svg" xmlns:xlink="http://www.w3.org/1999/xlink">
    <title>763C9064-F14E-413D-BA64-1488E74B10EA</title>
    <g id="Desktop" stroke="none" stroke-width="1" fill="none" fill-rule="evenodd">
        <g id="D-13-ST-ExpandedNavigator" transform="translate(-16.000000, -413.000000)">
            <g id="Revise/Navigator">
                <g id="Templates/Revise/Components/ReviseNavigator/Elements/Path/Interactive" transform="translate(3.000000, 60.000000)">
                    <g id="Templates/Revise/Components/ReviseNavigator/Elements/PathIndicator/Start/White" transform="translate(0.000000, 340.000000)">
                        <g id="Status" transform="translate(13.000000, 13.000000)">
                            <g id="Group-2">
                                <g id="Group">
                                    <circle id="Oval" stroke="#E3AE00" fill="#F7E6AC" cx="12" cy="12" r="11.5"></circle>
                                    <path d="M8.69454545,11.5636364 L8.69454545,7.08392727 C8.69454545,5.38763636 10.1623636,4 11.9563636,4 C13.7503636,4 15.2181818,5.38763636 15.2181818,7.08392727 L15.2181818,11.5636364 L8.69454545,11.5636364 Z" id="Path" stroke="#595A5E" stroke-linecap="round"></path>
                                    <rect id="Rectangle" fill="#E3AE00" fill-rule="nonzero" x="6" y="10" width="12" height="9.30909091"></rect>
                                    <path d="M12,16.4909091 L12,16.4909091 C11.45,16.4909091 11,16.0981818 11,15.6181818 L11,13.8727273 C11,13.3927273 11.45,13 12,13 L12,13 C12.55,13 13,13.3927273 13,13.8727273 L13,15.6181818 C13,16.0981818 12.55,16.4909091 12,16.4909091 Z" id="Path" fill="#595A5E" fill-rule="nonzero"></path>
                                    <rect id="Rectangle" fill="#595A5E" fill-rule="nonzero" x="6" y="17.2545455" width="12" height="2"></rect>
                                </g>
                            </g>
                        </g>
                    </g>
                </g>
            </g>
        </g>
    </g>
</svg>