<?xml version="1.0" encoding="UTF-8"?>
<svg width="40px" height="40px" viewBox="0 0 40 40" version="1.1" xmlns="http://www.w3.org/2000/svg" xmlns:xlink="http://www.w3.org/1999/xlink">
    <title>9EE044FB-420F-4BB3-A49D-0B9486808005</title>
    <g id="Desktop" stroke="none" stroke-width="1" fill="none" fill-rule="evenodd" fill-opacity="0.8">
        <g id="D-01-SC-Opening-Page" transform="translate(-1222.000000, -12.000000)" fill="#FFFFFF" fill-rule="nonzero">
            <g id="Templates/Global/Generic/Components/Header/SubjectGeneric/Desktop">
                <g id="Elements/Graphs/StudyRings" transform="translate(1222.000000, 12.000000)">
                    <g id="Group">
                        <path d="M20,0 C31.045695,0 40,8.954305 40,20 C40,31.045695 31.045695,40 20,40 C8.954305,40 0,31.045695 0,20 L0.00653959815,19.862419 C0.0757631637,19.1379887 0.686003698,18.5714286 1.42857143,18.5714286 C2.21754964,18.5714286 2.85714286,19.2110218 2.85714286,20 L2.85714286,20 C2.85714286,29.4677386 10.5322614,37.1428571 20,37.1428571 C29.4677386,37.1428571 37.1428571,29.4677386 37.1428571,20 C37.1428571,10.5322614 29.4677386,2.85714286 20,2.85714286 L19.862419,2.85060326 C19.1379887,2.78137969 18.5714286,2.17113916 18.5714286,1.42857143 C18.5714286,0.639593215 19.2110218,0 20,0 L20,0 Z" id="Combined-Shape"></path>
                        <path d="M19.862419,8.56488897 C19.1379887,8.49566541 18.5714286,7.88542487 18.5714286,7.14285714 C18.5714286,6.35387893 19.2110218,5.71428571 20,5.71428571 L20,5.71428571 C27.8897821,5.71428571 34.2857143,12.1102179 34.2857143,20 C34.2857143,27.8897821 27.8897821,34.2857143 20,34.2857143 L19.862419,34.2791747 C19.1379887,34.2099511 18.5714286,33.5997106 18.5714286,32.8571429 C18.5714286,32.0681646 19.2110218,31.4285714 20,31.4285714 L20,31.4285714 C26.3118257,31.4285714 31.4285714,26.3118257 31.4285714,20 C31.4285714,13.6881743 26.3118257,8.57142857 20,8.57142857 Z" id="Combined-Shape"></path>
                        <path d="M19.862419,14.2791747 C19.1379887,14.2099511 18.5714286,13.5997106 18.5714286,12.8571429 C18.5714286,12.0681646 19.2110218,11.4285714 20,11.4285714 L20,11.4285714 C24.7338693,11.4285714 28.5714286,15.2661307 28.5714286,20 C28.5714286,24.7338693 24.7338693,28.5714286 20,28.5714286 C15.2661307,28.5714286 11.4285714,24.7338693 11.4285714,20 L11.435111,19.862419 C11.5043346,19.1379887 12.1145751,18.5714286 12.8571429,18.5714286 C13.6461211,18.5714286 14.2857143,19.2110218 14.2857143,20 L14.2857143,20 C14.2857143,23.1559129 16.8440871,25.7142857 20,25.7142857 C23.1559129,25.7142857 25.7142857,23.1559129 25.7142857,20 C25.7142857,16.8440871 23.1559129,14.2857143 20,14.2857143 Z" id="Combined-Shape"></path>
                    </g>
                </g>
            </g>
        </g>
    </g>
</svg>