<?xml version="1.0" encoding="UTF-8"?>
<svg width="24px" height="24px" viewBox="0 0 24 24" version="1.1" xmlns="http://www.w3.org/2000/svg" xmlns:xlink="http://www.w3.org/1999/xlink">
    <title>QuestionMark/Colour</title>
    <g id="Symbols" stroke="none" stroke-width="1" fill="none" fill-rule="evenodd">
        <g id="Elements/Graphics/Style3/QuestionMark/Colour">
            <g id="Group">
                <circle id="Oval" stroke="#343578" fill="#84BAEF" cx="12" cy="12" r="11.5"></circle>
                <path d="M12.562,15.22 C12.562,14.68 12.688,14.227 12.94,13.861 C13.192,13.495 13.576,13.078 14.092,12.61 C14.476,12.262 14.785,11.956 15.019,11.692 C15.253,11.428 15.451,11.107 15.613,10.729 C15.775,10.351 15.856,9.916 15.856,9.424 C15.856,8.464 15.481,7.702 14.731,7.138 C13.981,6.574 12.976,6.292 11.716,6.292 C9.748,6.292 8.254,6.916 7.234,8.164 L7.234,8.164 L8.188,8.884 C8.992,7.912 10.138,7.426 11.626,7.426 C12.526,7.426 13.234,7.627 13.75,8.029 C14.266,8.431 14.524,8.962 14.524,9.622 C14.524,10.114 14.401,10.531 14.155,10.873 C13.909,11.215 13.528,11.614 13.012,12.07 C12.628,12.406 12.316,12.706 12.076,12.97 C11.836,13.234 11.635,13.552 11.473,13.924 C11.311,14.296 11.23,14.728 11.23,15.22 L11.23,15.22 L12.562,15.22 Z M11.896,19.09 C12.16,19.09 12.385,18.997 12.571,18.811 C12.757,18.625 12.85,18.406 12.85,18.154 C12.85,17.89 12.76,17.671 12.58,17.497 C12.4,17.323 12.172,17.236 11.896,17.236 C11.632,17.236 11.41,17.323 11.23,17.497 C11.05,17.671 10.96,17.89 10.96,18.154 C10.96,18.406 11.05,18.625 11.23,18.811 C11.41,18.997 11.632,19.09 11.896,19.09 Z" id="?" fill="#343578" fill-rule="nonzero"></path>
            </g>
        </g>
    </g>
</svg>