<?xml version="1.0" encoding="UTF-8"?>
<svg width="24px" height="24px" viewBox="0 0 24 24" version="1.1" xmlns="http://www.w3.org/2000/svg" xmlns:xlink="http://www.w3.org/1999/xlink">
    <title>FileFormats/Screenshot/Black</title>
    <g id="Symbols" stroke="none" stroke-width="1" fill="none" fill-rule="evenodd">
        <g id="Elements/Graphics/Style3/Screenshot/Black" fill="#000000" fill-rule="nonzero">
            <g id="compact-disc-2">
                <path d="M12,0 C5.3832,0 0,5.3832 0,12 C0,18.6168 5.3832,24 12,24 C18.6168,24 24,18.6168 24,12 C24,5.3832 18.6168,0 12,0 Z M12,23.2 C5.8244,23.2 0.8,18.1756 0.8,12 C0.8,5.8244 5.8244,0.8 12,0.8 C18.1756,0.8 23.2,5.8244 23.2,12 C23.2,18.1756 18.1756,23.2 12,23.2 Z" id="Shape"></path>
                <path d="M12,8.8 C10.2356,8.8 8.8,10.2356 8.8,12 C8.8,13.7644 10.2356,15.2 12,15.2 C13.7644,15.2 15.2,13.7644 15.2,12 C15.2,10.2356 13.7644,8.8 12,8.8 Z M12,14.4 C10.6764,14.4 9.6,13.3236 9.6,12 C9.6,10.6764 10.6764,9.6 12,9.6 C13.3236,9.6 14.4,10.6764 14.4,12 C14.4,13.3236 13.3236,14.4 12,14.4 Z" id="Shape"></path>
                <path d="M12,6.4 C8.912,6.4 6.4,8.912 6.4,12 C6.4,15.088 8.912,17.6 12,17.6 C15.088,17.6 17.6,15.088 17.6,12 C17.6,8.912 15.088,6.4 12,6.4 Z M12,16.8 C9.3532,16.8 7.2,14.6468 7.2,12 C7.2,9.3532 9.3532,7.2 12,7.2 C14.6468,7.2 16.8,9.3532 16.8,12 C16.8,14.6468 14.6468,16.8 12,16.8 Z" id="Shape"></path>
            </g>
        </g>
    </g>
</svg>