<?xml version="1.0" encoding="UTF-8"?>
<svg width="24px" height="24px" viewBox="0 0 24 24" version="1.1" xmlns="http://www.w3.org/2000/svg" xmlns:xlink="http://www.w3.org/1999/xlink">
    <title>Search/Black</title>
    <g id="Symbols" stroke="none" stroke-width="1" fill="none" fill-rule="evenodd">
        <g id="Elements/Graphics/Style3/Search/Black" fill="#000000" fill-rule="nonzero">
            <g id="search">
                <path d="M22.887837,22.697046 L16.3101956,15.8564583 C17.9879169,14.1738676 19.0273073,11.8542741 19.0273073,9.29608109 C19.0273073,4.16995638 14.8573509,0 9.73122622,0 C4.60510151,0 0.435145129,4.16995638 0.435145129,9.29608109 C0.435145129,14.4222058 4.60510151,18.5921622 9.73122622,18.5921622 C11.9813205,18.5921622 14.0463785,17.7878298 15.6559286,16.4531782 L22.2495061,23.3105873 C22.3362695,23.4013348 22.4522492,23.4464872 22.5686715,23.4464872 C22.6793392,23.4464872 22.7895641,23.4053188 22.8754422,23.3229821 C23.0516251,23.1534393 23.0569371,22.8732289 22.887837,22.697046 Z M9.73122622,17.7068211 C5.0933671,17.7068211 1.32048619,13.9339402 1.32048619,9.29608109 C1.32048619,4.65822197 5.0933671,0.885341057 9.73122622,0.885341057 C14.3690853,0.885341057 18.1419663,4.65822197 18.1419663,9.29608109 C18.1419663,13.9339402 14.3686427,17.7068211 9.73122622,17.7068211 Z" id="Shape"></path>
            </g>
        </g>
    </g>
</svg>