<?xml version="1.0" encoding="UTF-8"?>
<svg width="60px" height="60px" viewBox="0 0 60 60" version="1.1" xmlns="http://www.w3.org/2000/svg" xmlns:xlink="http://www.w3.org/1999/xlink">
    <title>Functional/Target/Grayscale</title>
    <defs>
        <rect id="path-1" x="1" y="0" width="58" height="60" rx="10"></rect>
    </defs>
    <g id="Symbols" stroke="none" stroke-width="1" fill="none" fill-rule="evenodd">
        <g id="Elements/Graphics/Style1/Target/Grayscale">
            <rect id="Rectangle" stroke="#FFFFFF" stroke-width="2" x="1" y="2" width="58" height="58" rx="10"></rect>
            <g id="Group" transform="translate(0.000000, 1.000000)">
                <mask id="mask-2" fill="white">
                    <use xlink:href="#path-1"></use>
                </mask>
                <use id="Rectangle" fill="#FFFFFF" xlink:href="#path-1"></use>
                <rect id="Rectangle" fill="#EEEEEE" mask="url(#mask-2)" x="0" y="-1" width="30" height="30"></rect>
                <rect id="Rectangle" fill="#EEEEEE" mask="url(#mask-2)" x="30" y="29" width="30" height="30"></rect>
                <path d="M29.5,-1 C30.0437833,-1 30.4833333,-0.56045 30.4833333,-0.0166666667 L30.4833333,-0.0166666667 L30.4833333,1.97458333 C44.34145,2.48296667 55.5170333,13.65855 56.0254167,27.5166667 L56.0254167,27.5166667 L58.0166667,27.5166667 C58.56045,27.5166667 59,27.9562167 59,28.5 C59,29.0437833 58.56045,29.4833333 58.0166667,29.4833333 L58.0166667,29.4833333 L56.0254167,29.4833333 C55.5170333,43.34145 44.34145,54.5170333 30.4833333,55.0254167 L30.4833333,55.0254167 L30.4833333,57.0166667 C30.4833333,57.56045 30.0437833,58 29.5,58 C28.9562167,58 28.5166667,57.56045 28.5166667,57.0166667 L28.5166667,57.0166667 L28.5166667,55.0254167 C14.65855,54.5170333 3.48296667,43.34145 2.97458333,29.4833333 L2.97458333,29.4833333 L0.983333333,29.4833333 C0.43955,29.4833333 0,29.0437833 0,28.5 C0,27.9562167 0.43955,27.5166667 0.983333333,27.5166667 L0.983333333,27.5166667 L2.97458333,27.5166667 C3.48296667,13.65855 14.65855,2.48296667 28.5166667,1.97458333 L28.5166667,1.97458333 L28.5166667,-0.0166666667 C28.5166667,-0.56045 28.9562167,-1 29.5,-1 Z M30.4833333,3.94125 L30.4833333,5.88333333 C30.4833333,6.42711667 30.0437833,6.86666667 29.5,6.86666667 C28.9562167,6.86666667 28.5166667,6.42711667 28.5166667,5.88333333 L28.5166667,5.88333333 L28.5166667,3.94125 C15.7431667,4.44766667 5.44766667,14.7431667 4.94125,27.5166667 L4.94125,27.5166667 L6.88333333,27.5166667 C7.42711667,27.5166667 7.86666667,27.9562167 7.86666667,28.5 C7.86666667,29.0437833 7.42711667,29.4833333 6.88333333,29.4833333 L6.88333333,29.4833333 L4.94125,29.4833333 C5.44766667,42.2568333 15.7431667,52.5523333 28.5166667,53.05875 L28.5166667,53.05875 L28.5166667,51.1166667 C28.5166667,50.5728833 28.9562167,50.1333333 29.5,50.1333333 C30.0437833,50.1333333 30.4833333,50.5728833 30.4833333,51.1166667 L30.4833333,51.1166667 L30.4833333,53.05875 C43.2568333,52.5523333 53.5523333,42.2568333 54.05875,29.4833333 L54.05875,29.4833333 L52.1166667,29.4833333 C51.5728833,29.4833333 51.1333333,29.0437833 51.1333333,28.5 C51.1333333,27.9562167 51.5728833,27.5166667 52.1166667,27.5166667 L52.1166667,27.5166667 L54.05875,27.5166667 C53.5523333,14.7431667 43.2568333,4.44766667 30.4833333,3.94125 L30.4833333,3.94125 Z M29.5,15.7166667 C30.0437833,15.7166667 30.4833333,16.1562167 30.4833333,16.7 L30.4833333,16.7 L30.4833333,21.6953333 C33.49135,22.1289833 35.8710167,24.50865 36.3046667,27.5166667 L36.3046667,27.5166667 L41.3,27.5166667 C41.8437833,27.5166667 42.2833333,27.9562167 42.2833333,28.5 C42.2833333,29.0437833 41.8437833,29.4833333 41.3,29.4833333 L41.3,29.4833333 L36.3046667,29.4833333 C35.8710167,32.4903667 33.49135,34.8710167 30.4833333,35.3046667 L30.4833333,35.3046667 L30.4833333,40.3 C30.4833333,40.8437833 30.0437833,41.2833333 29.5,41.2833333 C28.9562167,41.2833333 28.5166667,40.8437833 28.5166667,40.3 L28.5166667,40.3 L28.5166667,35.3046667 C25.50865,34.8710167 23.1289833,32.49135 22.6953333,29.4833333 L22.6953333,29.4833333 L17.7,29.4833333 C17.1562167,29.4833333 16.7166667,29.0437833 16.7166667,28.5 C16.7166667,27.9562167 17.1562167,27.5166667 17.7,27.5166667 L17.7,27.5166667 L22.6953333,27.5166667 C23.1289833,24.5096333 25.50865,22.1289833 28.5166667,21.6953333 L28.5166667,21.6953333 L28.5166667,16.7 C28.5166667,16.1562167 28.9562167,15.7166667 29.5,15.7166667 Z M29.5,23.5833333 C26.78895,23.5833333 24.5833333,25.78895 24.5833333,28.5 C24.5833333,31.21105 26.78895,33.4166667 29.5,33.4166667 C32.21105,33.4166667 34.4166667,31.21105 34.4166667,28.5 C34.4166667,25.78895 32.21105,23.5833333 29.5,23.5833333 Z" id="Combined-Shape" fill="#C7C7C7" fill-rule="nonzero" mask="url(#mask-2)"></path>
                <rect id="Rectangle" stroke="#FFFFFF" x="0.5" y="0.5" width="59" height="59" rx="10"></rect>
            </g>
        </g>
    </g>
</svg>