<?xml version="1.0" encoding="UTF-8"?>
<svg width="60px" height="60px" viewBox="0 0 60 60" version="1.1" xmlns="http://www.w3.org/2000/svg" xmlns:xlink="http://www.w3.org/1999/xlink">
    <title>Functional/Time/Grayscale</title>
    <defs>
        <rect id="path-1" x="1" y="1" width="58" height="59" rx="9"></rect>
    </defs>
    <g id="Symbols" stroke="none" stroke-width="1" fill="none" fill-rule="evenodd">
        <g id="Elements/Graphics/Style1/Time/Grayscale">
            <rect id="Rectangle" stroke="#FFFFFF" stroke-width="2" x="1" y="1" width="58" height="58" rx="10"></rect>
            <g id="Group-2">
                <g id="Graphics/Style1/Time">
                    <mask id="mask-2" fill="white">
                        <use xlink:href="#path-1"></use>
                    </mask>
                    <use id="Rectangle" fill="#FFFFFF" xlink:href="#path-1"></use>
                    <polygon id="Star" fill="#EEEEEE" mask="url(#mask-2)" points="30 47.9482887 14.6926627 66.9551813 17.3086434 42.6913566 -6.9551813 45.3073373 12.0517113 30 -6.9551813 14.6926627 17.3086434 17.3086434 14.6926627 -6.9551813 30 12.0517113 45.3073373 -6.9551813 42.6913566 17.3086434 66.9551813 14.6926627 47.9482887 30 66.9551813 45.3073373 42.6913566 42.6913566 45.3073373 66.9551813"></polygon>
                    <rect id="Rectangle" stroke="#FFFFFF" x="0.5" y="0.5" width="59" height="59" rx="10"></rect>
                </g>
                <g id="Elements/Graphics/Time" opacity="0.6" transform="translate(12.000000, 12.000000)" fill-rule="nonzero">
                    <g id="004-time">
                        <circle id="Oval" fill="#CCCCCC" cx="18" cy="18" r="17.4"></circle>
                        <path d="M35.3868,22.659 C35.3874,22.6572 35.3868,22.6548 35.3874,22.653 C35.7846,21.168 36,19.6086 36,18 C36,16.3914 35.7846,14.832 35.3868,13.347 C35.3862,13.3452 35.3868,13.3428 35.3868,13.3428 C35.3856,13.3386 35.3838,13.3368 35.3832,13.3344 C34.9746,11.8146 34.371,10.3746 33.6018,9.0408 C33.5952,9.0276 33.5952,9.0126 33.588,8.9994 C33.5808,8.9868 33.5676,8.9796 33.5598,8.967 C32.781,7.6302 31.8384,6.4008 30.7536,5.3106 C30.7434,5.2986 30.7392,5.283 30.7278,5.2716 C30.7164,5.2602 30.7008,5.256 30.6888,5.2458 C29.5986,4.161 28.3692,3.2184 27.0324,2.4396 C27.0204,2.4318 27.0132,2.4192 27,2.412 C26.9868,2.4042 26.9718,2.4042 26.958,2.3982 C25.6242,1.6296 24.1848,1.0254 22.665,0.6168 C22.6626,0.6162 22.6608,0.6144 22.659,0.6138 C22.6572,0.6132 22.6548,0.6138 22.653,0.6138 C21.168,0.2154 19.6086,0 18,0 C16.3914,0 14.832,0.2154 13.347,0.6132 C13.3452,0.6138 13.3428,0.6132 13.341,0.6132 C13.3386,0.6138 13.3368,0.6156 13.335,0.6162 C11.8152,1.0242 10.3758,1.6284 9.042,2.397 C9.0282,2.4042 9.0132,2.4042 9,2.412 C8.9868,2.4192 8.9796,2.4324 8.9676,2.4402 C7.6308,3.219 6.4014,4.1616 5.3112,5.2464 C5.2992,5.2566 5.2836,5.2608 5.2722,5.2722 C5.2608,5.2836 5.2566,5.2992 5.2464,5.3112 C4.1622,6.4014 3.219,7.6308 2.4402,8.9676 C2.4318,8.9802 2.4192,8.9874 2.412,9 C2.4042,9.0132 2.4048,9.0276 2.3982,9.0414 C1.629,10.3752 1.0254,11.8152 0.6168,13.335 C0.6162,13.3374 0.6144,13.3386 0.6138,13.341 C0.6138,13.341 0.6138,13.3452 0.6132,13.347 C0.2154,14.832 0,16.3914 0,18 C0,19.6086 0.2154,21.168 0.6132,22.653 C0.6138,22.6548 0.6132,22.6572 0.6138,22.659 C0.6144,22.662 0.6168,22.6638 0.6174,22.6668 C1.026,24.186 1.6296,25.6254 2.3982,26.9592 C2.4042,26.9724 2.4042,26.9868 2.412,27 C2.4228,27.0186 2.4384,27.033 2.451,27.0498 C3.228,28.3794 4.167,29.6034 5.247,30.6882 C5.2572,30.7002 5.2614,30.7158 5.2728,30.7272 C5.2842,30.7386 5.2998,30.7428 5.3118,30.753 C6.4014,31.8372 7.6302,32.7792 8.9664,33.558 C8.979,33.567 8.9868,33.5802 9.0006,33.588 C9.021,33.6 9.0432,33.6054 9.0648,33.6144 C10.3926,34.377 11.8242,34.9764 13.3356,35.3826 C13.338,35.3832 13.3398,35.385 13.3416,35.3856 C13.3446,35.3862 13.3476,35.3862 13.3506,35.3868 C14.8344,35.7852 16.392,36 18,36 C19.608,36 21.1656,35.7852 22.65,35.3874 C22.653,35.3868 22.656,35.3868 22.659,35.3862 C22.6614,35.3856 22.6632,35.3838 22.665,35.3832 C24.1764,34.977 25.608,34.3776 26.9358,33.615 C26.9574,33.606 26.9796,33.6006 27,33.5886 C27.0138,33.5808 27.0216,33.567 27.0342,33.5586 C28.3698,32.7798 29.5992,31.8378 30.6888,30.7536 C30.7008,30.7434 30.7164,30.7392 30.7278,30.7278 C30.7392,30.7164 30.7434,30.7008 30.7536,30.6888 C31.833,29.6034 32.7726,28.38 33.5496,27.0504 C33.5622,27.033 33.5778,27.0192 33.5886,27.0006 C33.5964,26.9874 33.5958,26.973 33.6024,26.9592 C34.371,25.626 34.9746,24.1866 35.3832,22.6668 C35.3838,22.6638 35.3856,22.662 35.3868,22.659 Z M32.913,22.617 L34.062,22.9248 C33.7464,23.9526 33.333,24.9384 32.8356,25.872 L31.8102,25.2798 C31.5234,25.1142 31.1562,25.212 30.9906,25.4994 C30.825,25.7868 30.9234,26.1534 31.2102,26.319 L32.2326,26.9094 C31.6644,27.8142 31.0128,28.6608 30.288,29.439 L29.4552,28.6062 C29.2206,28.3716 28.8414,28.3716 28.6068,28.6062 C28.3722,28.8408 28.3722,29.22 28.6068,29.4546 L29.4396,30.2874 C28.6614,31.0122 27.8148,31.6638 26.91,32.232 L26.3196,31.209 C26.1534,30.9216 25.7856,30.8232 25.5,30.9894 C25.2126,31.155 25.1142,31.5222 25.2804,31.809 L25.8726,32.8344 C24.9384,33.3318 23.9532,33.7452 22.9254,34.0608 L22.6176,32.9118 C22.5318,32.5914 22.2042,32.4012 21.8826,32.4876 C21.5628,32.5734 21.3726,32.9022 21.4584,33.2226 L21.7656,34.368 C20.7426,34.6032 19.6848,34.7448 18.6006,34.7832 L18.6006,32.4 C18.6006,32.0682 18.3324,31.8 18.0006,31.8 C17.6688,31.8 17.4006,32.0682 17.4006,32.4 L17.4006,34.785 C16.3164,34.7466 15.2586,34.605 14.2356,34.3698 L14.5428,33.2244 C14.6286,32.9046 14.4384,32.5752 14.1186,32.4894 C13.7988,32.4036 13.4694,32.5932 13.3836,32.9136 L13.0758,34.0626 C12.048,33.747 11.0628,33.3336 10.1286,32.8362 L10.7208,31.8108 C10.8864,31.5234 10.788,31.1568 10.5012,30.9912 C10.2144,30.8256 9.8478,30.924 9.6816,31.2108 L9.0912,32.2338 C8.1864,31.6656 7.3398,31.014 6.5616,30.2892 L7.3944,29.4564 C7.629,29.2218 7.629,28.8426 7.3944,28.608 C7.1598,28.3734 6.7806,28.3734 6.546,28.608 L5.712,29.4396 C4.9872,28.6614 4.3356,27.8148 3.7674,26.91 L4.7898,26.3196 C5.0772,26.154 5.1756,25.7874 5.01,25.5 C4.8438,25.2126 4.4766,25.1142 4.1904,25.2804 L3.165,25.8726 C2.6676,24.9384 2.2542,23.9532 1.9386,22.9254 L3.0876,22.6176 C3.4074,22.5318 3.5976,22.203 3.5118,21.8826 C3.4266,21.5622 3.0978,21.3714 2.7768,21.4584 L1.6314,21.765 C1.3956,20.742 1.2534,19.6842 1.215,18.6 L3.6,18.6 C3.9318,18.6 4.2,18.3318 4.2,18 C4.2,17.6682 3.9318,17.4 3.6,17.4 L1.215,17.4 C1.2534,16.3158 1.395,15.258 1.6302,14.235 L2.7756,14.5416 C2.8278,14.5554 2.88,14.562 2.9316,14.562 C3.1962,14.562 3.4392,14.3856 3.5106,14.1174 C3.5964,13.7976 3.4062,13.4682 3.0864,13.3824 L1.938,13.0752 C2.2536,12.0474 2.667,11.0616 3.1644,10.128 L4.1898,10.7202 C4.2846,10.7742 4.3872,10.8 4.4892,10.8 C4.6968,10.8 4.8984,10.6926 5.0094,10.5 C5.175,10.2126 5.0766,9.846 4.7898,9.6804 L3.7674,9.09 C4.3356,8.1852 4.9872,7.3386 5.712,6.5604 L6.5448,7.3932 C6.6618,7.5102 6.8154,7.569 6.969,7.569 C7.1226,7.569 7.2762,7.5102 7.3932,7.3932 C7.6278,7.1586 7.6278,6.7794 7.3932,6.5448 L6.5604,5.712 C7.3386,4.9872 8.1852,4.3356 9.09,3.7674 L9.6804,4.7898 C9.792,4.9824 9.993,5.0898 10.2006,5.0898 C10.3026,5.0898 10.4058,5.064 10.5,5.0094 C10.7874,4.8438 10.8858,4.4766 10.7196,4.1898 L10.1274,3.1644 C11.0616,2.667 12.0468,2.2536 13.0746,1.938 L13.3824,3.087 C13.4538,3.3552 13.6962,3.5316 13.9614,3.5316 C14.013,3.5316 14.0652,3.525 14.1174,3.5112 C14.4372,3.4254 14.6274,3.0966 14.5416,2.7762 L14.2344,1.6308 C15.258,1.3956 16.3158,1.2534 17.4,1.215 L17.4,3.6 C17.4,3.9318 17.6682,4.2 18,4.2 C18.3318,4.2 18.6,3.9318 18.6,3.6 L18.6,1.215 C19.6842,1.2534 20.742,1.395 21.765,1.6302 L21.4578,2.7756 C21.372,3.0954 21.5622,3.4248 21.882,3.5106 C21.9342,3.5244 21.9864,3.531 22.038,3.531 C22.3026,3.531 22.5456,3.3546 22.617,3.0864 L22.9248,1.9374 C23.9526,2.253 24.9384,2.6664 25.872,3.1638 L25.2798,4.1892 C25.1142,4.4766 25.2126,4.8432 25.4994,5.0088 C25.5936,5.0634 25.6968,5.0892 25.7988,5.0892 C26.0064,5.0892 26.208,4.9818 26.319,4.7892 L26.9094,3.7668 C27.8142,4.335 28.6608,4.9866 29.439,5.7114 L28.6062,6.5442 C28.3716,6.7788 28.3716,7.158 28.6062,7.3926 C28.7232,7.5096 28.8768,7.5684 29.0304,7.5684 C29.184,7.5684 29.3376,7.5096 29.4546,7.3926 L30.2874,6.5598 C31.0122,7.338 31.6638,8.1846 32.232,9.0894 L31.2096,9.6798 C30.9222,9.8454 30.8238,10.2126 30.99,10.4994 C31.1016,10.692 31.3026,10.7994 31.5102,10.7994 C31.6122,10.7994 31.7154,10.7736 31.8096,10.719 L32.835,10.1268 C33.3324,11.061 33.7458,12.0462 34.0614,13.074 L32.9124,13.3818 C32.5926,13.4676 32.4024,13.7964 32.4882,14.1168 C32.5596,14.385 32.802,14.5614 33.0672,14.5614 C33.1188,14.5614 33.171,14.5548 33.2232,14.541 L34.3686,14.2344 C34.6038,15.2574 34.746,16.3152 34.7838,17.3994 L32.4,17.3994 C32.0682,17.3994 31.8,17.6676 31.8,17.9994 C31.8,18.3312 32.0682,18.5994 32.4,18.5994 L34.785,18.5994 C34.7466,19.6836 34.605,20.7414 34.3698,21.7644 L33.2244,21.4578 C32.9052,21.372 32.5752,21.5616 32.4894,21.882 C32.4036,22.2024 32.5932,22.5318 32.913,22.617 Z" id="Shape" fill="#777777"></path>
                        <path d="M24.6,17.4 L20.3148,17.4 C20.0964,16.5606 19.4394,15.903 18.6,15.6852 L18.6,7.8 C18.6,7.4682 18.3318,7.2 18,7.2 C17.6682,7.2 17.4,7.4682 17.4,7.8 L17.4,15.6852 C16.3674,15.9534 15.6,16.8846 15.6,18 C15.6,19.3236 16.6764,20.4 18,20.4 C19.1154,20.4 20.0466,19.632 20.3148,18.6 L24.6,18.6 C24.9318,18.6 25.2,18.3318 25.2,18 C25.2,17.6682 24.9318,17.4 24.6,17.4 Z M18,19.2 C17.3382,19.2 16.8,18.6618 16.8,18 C16.8,17.3382 17.3382,16.8 18,16.8 C18.6618,16.8 19.2,17.3382 19.2,18 C19.2,18.6618 18.6618,19.2 18,19.2 Z" id="Shape" fill="#777777"></path>
                    </g>
                </g>
            </g>
        </g>
    </g>
</svg>