<?xml version="1.0" encoding="UTF-8"?>
<svg width="60px" height="60px" viewBox="0 0 60 60" version="1.1" xmlns="http://www.w3.org/2000/svg" xmlns:xlink="http://www.w3.org/1999/xlink">
    <title>Bonus/Grayscale</title>
    <defs>
        <rect id="path-1" x="1" y="1" width="58" height="59" rx="8"></rect>
    </defs>
    <g id="Symbols" stroke="none" stroke-width="1" fill="none" fill-rule="evenodd">
        <g id="Elements/Graphics/Style1/Bonus/Grayscale">
            <g id="Graphics/Bonus">
                <mask id="mask-2" fill="white">
                    <use xlink:href="#path-1"></use>
                </mask>
                <use id="Rectangle" fill="#FFFFFF" xlink:href="#path-1"></use>
                <polygon id="Path-2" fill="#EDEDED" mask="url(#mask-2)" points="0 49.7783203 42.0615234 0 60 0 60 23.6054688 0 60"></polygon>
                <g id="Elements/Graphics/Bonus/Colour" transform="translate(12.000000, 12.000000)" fill="#C6C6C6" fill-rule="nonzero">
                    <g id="star">
                        <path d="M35.9061651,13.0715943 C35.6705023,12.3426327 35.0239403,11.8248887 34.2589975,11.7559477 L23.8684109,10.8124726 L19.7596933,1.19561785 C19.4567375,0.490826833 18.7667784,0.0346078576 18.0001877,0.0346078576 C17.2335969,0.0346078576 16.5436378,0.490826833 16.240682,1.19726588 L12.1319644,10.8124726 L1.73972978,11.7559477 C0.97616029,11.8265366 0.331246336,12.3426327 0.0942102009,13.0715943 C-0.142825934,13.8005558 0.0760822588,14.6001064 0.653703313,15.1041172 L8.50775637,21.9921725 L6.19177892,32.1940642 C6.02231047,32.944175 6.31345557,33.719555 6.93584708,34.1694567 C7.2703894,34.4111621 7.66178738,34.5342122 8.05648133,34.5342122 C8.39679161,34.5342122 8.73435519,34.442474 9.03731099,34.2611949 L18.0001877,28.9043984 L26.9597684,34.2611949 C27.6153944,34.6556142 28.4418621,34.6196331 29.0628802,34.1694567 C29.6855464,33.7181817 29.9764168,32.942527 29.8069484,32.1940642 L27.4909709,21.9921725 L35.345024,15.1054905 C35.9226451,14.6001064 36.1432013,13.8019292 35.9061651,13.0715943 Z" id="Path"></path>
                    </g>
                </g>
                <rect id="Rectangle-2" stroke="#FFFFFF" x="0.5" y="0.5" width="59" height="59" rx="10"></rect>
            </g>
        </g>
    </g>
</svg>