<?xml version="1.0" encoding="UTF-8"?>
<svg width="24px" height="24px" viewBox="0 0 24 24" version="1.1" xmlns="http://www.w3.org/2000/svg" xmlns:xlink="http://www.w3.org/1999/xlink">
    <title>FileFormat/Video/Black</title>
    <g id="Symbols" stroke="none" stroke-width="1" fill="none" fill-rule="evenodd">
        <g id="Elements/Graphics/Style3/Video/Black" fill="#000000" fill-rule="nonzero">
            <g id="Video" transform="translate(0.000000, 5.000000)">
                <path d="M23.2976842,1.11284211 C22.8682105,0.928421053 22.3898947,1.01389474 22.0547368,1.33305263 L17.2631579,5.75536842 L17.2631579,2.08168421 C17.2631579,0.933894737 16.3292632,0 15.1814737,0 L2.08168421,0 C0.933894737,0 0,0.933894737 0,2.08168421 L0,11.8774737 C0,12.9898947 0.904842105,13.8947368 2.01726316,13.8947368 L8.23831579,13.8947368 L9.55705263,13.8947368 L15.0850526,13.8947368 C16.2858947,13.8947368 17.2631579,12.9174737 17.2631579,11.7162105 L17.2631579,8.34694737 L22.0294737,12.9023158 C22.2530526,13.1250526 22.5402105,13.2425263 22.8366316,13.2425263 C22.9852632,13.2425263 23.1355789,13.2134737 23.2816842,13.1532632 C23.7183158,12.9734737 24,12.5511579 24,12.0770526 L24,2.18231579 C24,1.70863158 23.7309474,1.29852632 23.2976842,1.11284211 Z M16.4210526,11.7162105 C16.4210526,12.4530526 15.8218947,13.0526316 15.0850526,13.0526316 L8.91326316,13.0526316 C8.91242105,13.0526316 8.91157895,13.0526316 8.91073684,13.0526316 L8.88505263,13.0526316 C8.88378947,13.0526316 8.88210526,13.0526316 8.88084211,13.0526316 L2.01726316,13.0526316 C1.36926316,13.0526316 0.842105263,12.5254737 0.842105263,11.8774737 L0.842105263,2.08168421 C0.842105263,1.39831579 1.39831579,0.842105263 2.08168421,0.842105263 L15.1814737,0.842105263 C15.8648421,0.842105263 16.4210526,1.39831579 16.4210526,2.08168421 L16.4210526,11.7162105 Z M23.1578947,12.0770526 C23.1578947,12.2778947 23.0075789,12.3553684 22.9612632,12.3743158 C22.904,12.3983158 22.7557895,12.4383158 22.6231579,12.3048421 L17.3562105,7.27157895 C17.2947368,7.20968421 17.2618947,7.12673684 17.2631228,7.03873684 C17.2644211,6.95073684 17.2997895,6.86947368 17.3591579,6.81305263 L22.6307368,1.94736842 C22.7018947,1.87957895 22.7764211,1.85978947 22.8391579,1.85978947 C22.8938947,1.85978947 22.9397895,1.87536842 22.9658947,1.88631579 C23.0105263,1.90568421 23.1578947,1.98442105 23.1578947,2.18231579 L23.1578947,12.0770526 Z" id="Shape"></path>
                <path d="M7.63663158,6.62021053 C7.86652632,6.21978947 8,5.75705263 8,5.26315789 C8,3.75410526 6.77221053,2.52631579 5.26315789,2.52631579 C3.75410526,2.52631579 2.52631579,3.75410526 2.52631579,5.26315789 C2.52631579,6.77221053 3.75410526,8 5.26315789,8 C5.97347368,8 6.61936842,7.72589474 7.10610526,7.28042105 L7.70231579,7.87663158 C7.78442105,7.95873684 7.89221053,8 8,8 C8.10778947,8 8.21557895,7.95873684 8.29768421,7.87663158 C8.46231579,7.712 8.46231579,7.44589474 8.29768421,7.28126316 L7.63663158,6.62021053 Z M5.26315789,7.15789474 C4.21852632,7.15789474 3.36842105,6.30778947 3.36842105,5.26315789 C3.36842105,4.21852632 4.21852632,3.36842105 5.26315789,3.36842105 C6.30778947,3.36842105 7.15789474,4.21852632 7.15789474,5.26315789 C7.15789474,5.52210526 7.10526316,5.76884211 7.01052632,5.99410526 L6.19242105,5.176 C6.02778947,5.01136842 5.76168421,5.01136842 5.59705263,5.176 C5.43242105,5.34063158 5.43242105,5.60673684 5.59705263,5.77136842 L6.50694737,6.68126316 C6.17305263,6.97431579 5.74105263,7.15789474 5.26315789,7.15789474 Z" id="Shape"></path>
            </g>
        </g>
    </g>
</svg>